<?xml version="1.0" standalone="no"?>
<!DOCTYPE svg PUBLIC "-//W3C//DTD SVG 20010904//EN"
 "http://www.w3.org/TR/2001/REC-SVG-20010904/DTD/svg10.dtd">
<svg version="1.0" xmlns="http://www.w3.org/2000/svg"
 width="128.000000pt" height="128.000000pt" viewBox="0 0 128.000000 128.000000"
 preserveAspectRatio="xMidYMid meet">
<metadata>
Created by potrace 1.14, written by Peter Selinger 2001-2017
</metadata>
<g transform="translate(0.000000,128.000000) scale(0.100000,-0.100000)"
fill="#000000" stroke="none">
<path d="M0 640 l0 -640 640 0 640 0 0 640 0 640 -640 0 -640 0 0 -640z m934
403 c-4 -10 -10 -51 -12 -90 -2 -40 -7 -73 -11 -73 -4 0 -18 11 -31 25 -12 13
-38 29 -56 35 -26 9 -34 17 -34 36 0 21 -5 24 -35 24 l-35 0 0 -147 0 -148 26
26 26 26 44 -24 c24 -14 46 -29 49 -33 3 -5 -9 -35 -26 -66 -27 -48 -34 -54
-40 -37 -7 20 -50 53 -69 53 -6 0 -10 -69 -10 -199 0 -194 -4 -236 -20 -226
-4 3 -19 -13 -34 -35 -14 -22 -30 -40 -34 -40 -4 0 -32 24 -61 54 -52 53 -53
55 -37 77 14 20 16 64 16 339 0 269 -2 319 -16 338 -8 12 -24 22 -34 22 -25 0
-60 -51 -60 -88 0 -30 22 -62 41 -62 6 0 7 -4 4 -10 -11 -17 -71 -11 -99 11
-47 37 -26 135 34 154 33 10 11 26 -26 19 -38 -7 -84 16 -84 41 0 13 44 15
316 15 298 0 316 -1 308 -17z m-421 -361 l27 -28 -30 -29 -30 -29 -30 29 -30
29 27 28 c15 15 30 28 33 28 3 0 18 -13 33 -28z m1 -151 l28 -29 -23 -26 c-28
-32 -40 -33 -76 -2 l-28 24 29 31 c17 17 33 31 36 31 3 0 19 -13 34 -29z"/>
<path d="M680 641 c0 -229 4 -362 10 -366 7 -4 10 118 10 359 0 237 -4 366
-10 366 -6 0 -10 -126 -10 -359z"/>
</g>
</svg>
