<?xml version="1.0" standalone="no"?>
<!DOCTYPE svg PUBLIC "-//W3C//DTD SVG 20010904//EN"
 "http://www.w3.org/TR/2001/REC-SVG-20010904/DTD/svg10.dtd">
<svg version="1.0" xmlns="http://www.w3.org/2000/svg"
 width="260.000000pt" height="260.000000pt" viewBox="0 0 260.000000 260.000000"
 preserveAspectRatio="xMidYMid meet">
<metadata>
Created by potrace 1.14, written by Peter Selinger 2001-2017
</metadata>
<g transform="translate(0.000000,260.000000) scale(0.100000,-0.100000)"
fill="#000000" stroke="none">
<path d="M0 1300 l0 -1300 1300 0 1300 0 0 1300 0 1300 -1300 0 -1300 0 0
-1300z m1698 884 c42 -8 106 -30 142 -47 84 -41 195 -151 233 -229 86 -181 70
-386 -40 -508 l-46 -52 34 -26 c247 -188 265 -537 40 -761 -36 -36 -93 -80
-127 -98 -119 -63 -115 -63 -801 -63 l-623 0 0 900 0 900 555 0 c467 0 568 -3
633 -16z"/>
<path d="M870 1655 l0 -175 377 0 c361 0 378 1 420 21 62 30 86 70 91 146 4
56 1 68 -22 104 -54 81 -41 79 -478 79 l-388 0 0 -175z"/>
<path d="M870 940 l0 -180 413 0 c239 0 426 4 446 10 39 11 86 51 107 92 8 15
14 51 14 81 0 83 -53 148 -136 167 -21 5 -220 10 -441 10 l-403 0 0 -180z"/>
</g>
</svg>
